<svg width="33" height="36" viewBox="0 0 33 36" fill="none" xmlns="http://www.w3.org/2000/svg">
<path d="M32.4596 20.3286C32.5375 21.2359 32.2108 22.1312 31.5669 22.7751L23.1183 31.2237C21.8997 32.4321 20.2504 33.1062 18.5341 33.097H8.10198L5.46075 35.7308C5.10177 36.0897 4.51933 36.0897 4.1604 35.7308C3.80142 35.3715 3.80142 34.7894 4.1604 34.4304L7.06217 31.5286V31.5284C7.23487 31.3565 7.46881 31.2599 7.71248 31.2604H18.5343C19.7747 31.2655 20.9653 30.7733 21.8401 29.8939L30.2887 21.4453C30.5882 21.1258 30.6994 20.6731 30.5816 20.2513C30.4637 19.8296 30.1339 19.5001 29.7122 19.3822C29.2904 19.2643 28.8377 19.3753 28.5181 19.6748L21.8511 26.4114L21.8291 26.4298C21.2551 26.9986 20.4808 27.3192 19.6729 27.3225H13.2262C12.7191 27.3225 12.3079 26.9112 12.3079 26.4042C12.3079 25.8968 12.7191 25.4858 13.2262 25.4858H19.6765C19.9589 25.4843 20.2325 25.3874 20.4526 25.2106C20.6727 25.0338 20.8265 24.7876 20.8887 24.5124C20.97 24.145 20.8803 23.7604 20.6446 23.4667C20.4091 23.1734 20.0529 23.0027 19.6765 23.0027H8.55036C7.52085 22.9996 6.5328 23.4083 5.80641 24.1376L4.18268 25.7574V25.7577C4.01587 25.9517 3.77579 26.0675 3.52005 26.0769C3.26459 26.0864 3.0163 25.9888 2.83563 25.8076C2.65499 25.6265 2.55813 25.3782 2.56839 25.1225C2.57863 24.8668 2.69496 24.627 2.88969 24.4609L4.51342 22.8411H4.51317C5.58242 21.7656 7.03724 21.1625 8.55392 21.1661H19.6768C20.2858 21.1641 20.8816 21.3442 21.3874 21.6834C21.8934 22.0224 22.2865 22.5049 22.5163 23.0689L27.1961 18.3891C27.7554 17.8297 28.508 17.5064 29.2987 17.4854C30.0895 17.4644 30.8581 17.7478 31.4462 18.2766C32.0345 18.8054 32.3973 19.5401 32.4601 20.3285L32.4596 20.3286ZM25.113 8.20677C24.8868 7.62999 24.4319 7.1726 23.8567 6.94328L21.4948 6.01033L21.0392 3.51262V3.51237C20.9283 2.90177 20.5683 2.36525 20.0458 2.03059C19.5231 1.6962 18.8851 1.59423 18.2843 1.74924L15.8196 2.36983L13.983 0.617731C13.5346 0.190087 12.9289 -0.0323244 12.3103 0.00380504C11.6918 0.0401897 11.1163 0.331522 10.721 0.808847L9.10464 2.76671L6.5885 2.42875C5.9738 2.34599 5.35243 2.52253 4.87307 2.9161C4.39366 3.30967 4.09977 3.88493 4.06133 4.50421L3.9035 7.03885L1.66279 8.24362C1.12291 8.53854 0.728593 9.04309 0.572806 9.63803C0.417018 10.2332 0.513617 10.8664 0.839795 11.3878L2.20265 13.533L1.1006 15.8214V15.8216C0.831812 16.3807 0.807988 17.0264 1.03424 17.6042C1.26074 18.1818 1.71734 18.6391 2.29437 18.8667L5.13003 19.9869L5.13028 19.9871C5.602 20.1737 6.13545 19.9426 6.32227 19.4711C6.5088 18.9994 6.27768 18.4657 5.80622 18.2791L2.97057 17.1589L2.97031 17.1586C2.86782 17.1184 2.78685 17.0374 2.74637 16.9349C2.70588 16.8327 2.70998 16.7179 2.75738 16.6187L4.07616 13.8712L4.07591 13.8709C4.21325 13.5857 4.19377 13.2498 4.02466 12.9821L2.38991 10.4108C2.33098 10.3178 2.31304 10.2043 2.34097 10.0977C2.3689 9.99112 2.43988 9.90093 2.53699 9.84866L5.2223 8.40151H5.22204C5.49672 8.25418 5.67787 7.97745 5.70324 7.66691L5.89413 4.62549H5.89439C5.90028 4.51506 5.9523 4.41257 6.03762 4.34262C6.12192 4.27087 6.23287 4.23859 6.34253 4.25447L9.36578 4.66213H9.36553C9.67967 4.7062 9.99405 4.58372 10.1957 4.33877L12.1389 1.98786C12.2091 1.90304 12.3119 1.85129 12.4218 1.84488C12.532 1.83873 12.6399 1.87845 12.7193 1.9548L14.9234 4.05973C15.1527 4.27907 15.4794 4.36387 15.7864 4.28368L18.7251 3.52318V3.52343C18.8317 3.49602 18.9447 3.51421 19.0371 3.5734C19.1299 3.63259 19.1937 3.72765 19.2137 3.83552L19.7866 6.82932C19.8432 7.14192 20.0572 7.40302 20.3524 7.51983L23.188 8.64006L23.1883 8.64031C23.2882 8.68413 23.3661 8.76715 23.4027 8.87015C23.4396 8.9729 23.4325 9.08667 23.3828 9.18403L22.0642 11.9316C21.9268 12.217 21.9463 12.5529 22.1154 12.8205L23.7502 15.3917C23.8091 15.4847 23.827 15.5982 23.7991 15.7048C23.7712 15.8114 23.7002 15.9016 23.6033 15.9539L20.918 17.401C20.6959 17.5122 20.5281 17.7085 20.4532 17.9452C20.3782 18.1823 20.4025 18.4393 20.5201 18.6578C20.638 18.8766 20.8394 19.0383 21.0784 19.1059C21.3172 19.1736 21.5735 19.1418 21.7887 19.0173L24.474 17.5701H24.4737C25.018 17.2752 25.4154 16.7681 25.5711 16.1694C25.7272 15.5706 25.6278 14.9338 25.2965 14.4111L23.9336 12.266L25.0357 9.97757L25.0359 9.97731C25.3044 9.41874 25.3298 8.77379 25.1056 8.19577L25.113 8.20677ZM13.0646 17.39C12.7353 17.3905 12.4135 17.2934 12.1394 17.1112C11.8655 16.9288 11.6518 16.6692 11.5255 16.3651C11.3287 15.8975 10.7901 15.6781 10.3225 15.8749C9.85484 16.0717 9.63523 16.6103 9.83204 17.0779C10.0983 17.7152 10.5474 18.2594 11.1227 18.642C11.6979 19.0245 12.3736 19.228 13.0646 19.2267C15.0629 19.2267 16.5691 17.8125 16.5691 15.9208C16.5691 14.9879 16.1429 13.3237 13.3034 12.6626H13.274C11.4006 12.2365 11.4006 11.4468 11.4006 11.1934C11.4006 10.198 12.2639 9.72426 13.0685 9.72426L13.0682 9.724C13.3969 9.72323 13.7185 9.81957 13.9924 10.0015C14.2663 10.1832 14.4803 10.442 14.6074 10.7451C14.6963 10.9772 14.8754 11.163 15.1037 11.2609C15.332 11.3585 15.5903 11.3595 15.8193 11.2634C16.0484 11.1676 16.229 10.9829 16.3197 10.7517C16.4104 10.5204 16.4035 10.2623 16.3008 10.0364C15.8831 9.04116 15.0288 8.29529 13.9865 8.01599V7.36952C13.9865 6.86219 13.5753 6.4512 13.0682 6.4512C12.5609 6.4512 12.1499 6.86219 12.1499 7.36952V8.02697C11.4215 8.18045 10.7683 8.58017 10.2999 9.15901C9.83154 9.73757 9.57688 10.4599 9.57865 11.2042C9.57865 12.1372 10.0048 13.8014 12.8443 14.4625H12.8737C14.7471 14.8922 14.7471 15.6783 14.7471 15.9316C14.7248 16.9419 13.8615 17.3939 13.0572 17.3939L13.0646 17.39Z" fill="#1380FF"/>
</svg>
